<?xml version="1.0" encoding="utf-8"?>
<!-- Generator: Adobe Illustrator 21.1.0, SVG Export Plug-In . SVG Version: 6.00 Build 0)  -->
<svg version="1.1" id="Capa_1" xmlns="http://www.w3.org/2000/svg" xmlns:xlink="http://www.w3.org/1999/xlink" x="0px" y="0px"
	 viewBox="0 0 32 32" style="enable-background:new 0 0 32 32;" xml:space="preserve">
<style type="text/css">
	.st0{display:none;}
	.st1{display:inline;fill:#2196F3;}
	.st2{display:inline;fill:#FFFFFF;}
	.st3{fill:#4CAF50;}
	.st4{fill:#FFFFFF;}
	.st5{display:inline;fill:#005AB9;}
	.st6{display:inline;fill:#122643;}
	.st7{display:inline;}
	.st8{display:inline;fill:#673AB7;}
	.st9{display:inline;fill:#9C27B0;}
	.st10{fill:#009688;}
	.st11{display:inline;fill:#EA520D;}
</style>
<g id="Factura_Electr贸nica" class="st0">
	<path class="st1" d="M32,0v23.759C32,28.311,28.312,32,23.762,32H0V8.323l0,0V8.239C0,3.69,3.697,0.007,8.248,0.007
		C8.248,0.007,32,0.003,32,0z"/>
	<path class="st2" d="M8.08,10.977c0-0.728,0.497-1.386,1.385-1.386h4.549c0.781,0,1.191,0.604,1.191,1.227
		c0,0.604-0.391,1.226-1.191,1.226h-3.269v2.594h2.753c0.854,0,1.28,0.604,1.28,1.208c0,0.622-0.425,1.244-1.28,1.244h-2.753v3.873
		c0,0.889-0.569,1.386-1.333,1.386c-0.764,0-1.332-0.497-1.332-1.386V10.977z"/>
	<path class="st2" d="M17.964,18.368c0.177,1.261,1.226,1.848,2.415,1.848c1.316,0,2.222-1.031,2.898-1.031
		c0.55,0,1.047,0.551,1.047,1.102c0,1.102-2.274,2.168-4.175,2.168c-2.878,0-4.797-2.097-4.797-4.922
		c0-2.595,1.884-4.957,4.585-4.957c2.771,0,4.601,2.523,4.601,4.655c0,0.764-0.337,1.137-1.118,1.137H17.964z M21.98,16.663
		c-0.142-1.12-0.854-1.955-2.043-1.955c-1.137,0-1.903,0.871-2.026,1.955H21.98z"/>
</g>
<g id="Contabilidad">
	<path class="st3" d="M32,0v23.759C32,28.311,28.312,32,23.762,32H0V8.323l0,0V8.239C0,3.69,3.697,0.007,8.248,0.007
		C8.248,0.007,32,0.003,32,0z"/>
	<path class="st4" d="M12.041,9.377c1.297,0,3.82,0.427,3.82,1.99c0,0.641-0.444,1.191-1.102,1.191
		c-0.728,0-1.226-0.622-2.719-0.622c-2.203,0-3.34,1.865-3.34,4.033c0,2.115,1.155,3.927,3.34,3.927
		c1.493,0,2.097-0.747,2.826-0.747c0.799,0,1.173,0.8,1.173,1.208c0,1.705-2.683,2.097-3.998,2.097c-3.607,0-6.112-2.861-6.112-6.54
		C5.929,12.221,8.417,9.377,12.041,9.377z"/>
	<path class="st4" d="M26.012,17.533c0,2.665-1.83,4.922-4.584,4.922c-2.753,0-4.584-2.257-4.584-4.922
		c0-2.595,1.884-4.958,4.584-4.958C24.129,12.575,26.012,14.938,26.012,17.533z M19.403,17.533c0,1.226,0.64,2.576,2.025,2.576
		c1.386,0,2.026-1.351,2.026-2.576c0-1.227-0.622-2.613-2.026-2.613C20.024,14.921,19.403,16.306,19.403,17.533z"/>
</g>
<g id="Remuneraciones" class="st0">
	<path class="st5" d="M32,0v23.759C32,28.311,28.312,32,23.762,32H0V8.323l0,0V8.239C0,3.69,3.697,0.007,8.248,0.007
		C8.248,0.007,32,0.003,32,0z"/>
	<path class="st2" d="M7.085,10.978c0-0.854,0.48-1.387,1.368-1.387h3.128c2.736,0,4.424,1.227,4.424,4.016
		c0,1.955-1.474,3.075-3.286,3.359l3.02,3.233c0.249,0.267,0.356,0.533,0.356,0.783c0,0.693-0.551,1.368-1.332,1.368
		c-0.32,0-0.747-0.125-1.031-0.462l-3.944-4.78H9.75v3.854c0,0.889-0.569,1.387-1.332,1.387c-0.764,0-1.332-0.498-1.332-1.387
		V10.978z M9.75,15.188h1.831c0.977,0,1.652-0.587,1.652-1.582c0-1.012-0.675-1.562-1.652-1.562H9.75V15.188z"/>
	<path class="st2" d="M18.96,18.368c0.177,1.262,1.226,1.849,2.416,1.849c1.315,0,2.221-1.031,2.897-1.031
		c0.55,0,1.048,0.55,1.048,1.101c0,1.102-2.274,2.168-4.175,2.168c-2.878,0-4.797-2.097-4.797-4.922
		c0-2.594,1.883-4.957,4.584-4.957c2.772,0,4.602,2.523,4.602,4.655c0,0.764-0.338,1.137-1.12,1.137H18.96z M22.975,16.663
		c-0.142-1.12-0.853-1.955-2.043-1.955c-1.137,0-1.902,0.87-2.026,1.955H22.975z"/>
</g>
<g id="Empresas" class="st0">
	<rect x="16" y="0.009" class="st6" width="16" height="6"/>
	<g class="st7">
		<path class="st4" d="M20.864,4.188c0.119,0,0.221,0.042,0.304,0.128s0.125,0.186,0.125,0.301c0,0.124-0.042,0.227-0.125,0.31
			c-0.083,0.083-0.185,0.125-0.304,0.125h-1.831c-0.11,0-0.21-0.042-0.297-0.125c-0.088-0.083-0.132-0.187-0.132-0.31V1.397
			c0-0.111,0.041-0.211,0.122-0.301c0.081-0.09,0.184-0.135,0.307-0.135h1.831c0.119,0,0.221,0.043,0.304,0.128
			s0.125,0.188,0.125,0.307c0,0.124-0.042,0.226-0.125,0.307s-0.185,0.122-0.304,0.122h-1.408v0.729h0.979
			c0.115,0,0.215,0.043,0.301,0.128c0.085,0.085,0.128,0.188,0.128,0.307c0,0.12-0.043,0.221-0.128,0.304
			C20.65,3.378,20.551,3.42,20.435,3.42h-0.979v0.768H20.864z"/>
		<path class="st4" d="M24.736,0.962c0.175,0,0.339,0.035,0.492,0.103c0.153,0.068,0.288,0.162,0.403,0.282s0.208,0.257,0.278,0.413
			s0.11,0.323,0.118,0.502v2.355c0,0.124-0.042,0.227-0.128,0.31c-0.085,0.083-0.186,0.125-0.301,0.125
			c-0.123,0-0.227-0.042-0.311-0.125c-0.083-0.083-0.124-0.187-0.124-0.31V2.312c0-0.124-0.042-0.227-0.125-0.311
			c-0.083-0.083-0.185-0.125-0.304-0.125c-0.12,0-0.223,0.042-0.308,0.125c-0.085,0.083-0.128,0.187-0.128,0.311v2.304
			c0,0.124-0.042,0.227-0.125,0.31c-0.083,0.083-0.185,0.125-0.304,0.125c-0.12,0-0.221-0.042-0.304-0.125
			c-0.084-0.083-0.125-0.187-0.125-0.31V2.312c0-0.124-0.042-0.227-0.125-0.311c-0.083-0.083-0.187-0.125-0.311-0.125
			c-0.119,0-0.221,0.042-0.304,0.125c-0.083,0.083-0.125,0.187-0.125,0.311v2.304c0,0.124-0.042,0.227-0.125,0.31
			c-0.083,0.083-0.187,0.125-0.311,0.125c-0.119,0-0.221-0.042-0.304-0.125c-0.083-0.083-0.125-0.187-0.125-0.31V2.261
			c0-0.167,0.033-0.329,0.1-0.486s0.157-0.296,0.275-0.416c0.117-0.119,0.255-0.215,0.412-0.288
			c0.158-0.072,0.327-0.109,0.506-0.109c0.162,0,0.314,0.03,0.458,0.09c0.143,0.06,0.278,0.141,0.406,0.243
			c0.124-0.098,0.257-0.178,0.399-0.24C24.415,0.993,24.569,0.962,24.736,0.962z"/>
		<path class="st4" d="M29.559,2.513c0,0.213-0.041,0.415-0.122,0.605s-0.191,0.355-0.332,0.496
			c-0.142,0.141-0.307,0.251-0.496,0.333c-0.19,0.081-0.392,0.122-0.605,0.122h-0.69v0.563c0,0.12-0.042,0.221-0.125,0.304
			c-0.083,0.083-0.185,0.125-0.305,0.125c-0.119,0-0.221-0.042-0.304-0.125c-0.083-0.083-0.125-0.184-0.125-0.304V1.387
			c0-0.119,0.042-0.221,0.125-0.304c0.083-0.083,0.185-0.125,0.304-0.125h1.12c0.214,0,0.415,0.041,0.605,0.122
			c0.189,0.081,0.354,0.192,0.496,0.333c0.141,0.141,0.251,0.306,0.332,0.496S29.559,2.3,29.559,2.513z M28.702,2.513
			c0-0.094-0.019-0.183-0.055-0.269s-0.086-0.16-0.15-0.224s-0.139-0.114-0.224-0.15c-0.086-0.036-0.176-0.054-0.27-0.054h-0.69
			v1.395h0.69c0.094,0,0.184-0.018,0.27-0.054c0.085-0.037,0.159-0.086,0.224-0.15s0.114-0.138,0.15-0.221
			C28.683,2.702,28.702,2.611,28.702,2.513z"/>
	</g>
</g>
<g id="Administraci贸n_Comercial" class="st0">
	<path class="st8" d="M32,0v23.759C32,28.311,28.312,32,23.762,32H0V8.323l0,0V8.239C0,3.69,3.697,0.007,8.248,0.007
		C8.248,0.007,32,0.003,32,0z"/>
	<path class="st2" d="M10.016,10.852c0.302-0.818,0.995-1.474,1.901-1.474c0.941,0,1.599,0.622,1.901,1.474l3.483,9.667
		c0.106,0.283,0.142,0.533,0.142,0.656c0,0.693-0.569,1.174-1.226,1.174c-0.747,0-1.12-0.392-1.297-0.925l-0.533-1.67H9.447
		l-0.533,1.653c-0.177,0.55-0.55,0.943-1.278,0.943c-0.712,0-1.316-0.533-1.316-1.245c0-0.285,0.089-0.497,0.125-0.585
		L10.016,10.852z M10.212,17.302h3.375l-1.653-5.153H11.9L10.212,17.302z"/>
	<path class="st2" d="M24.573,15.418c-0.639,0-1.208-0.497-2.024-0.497c-1.458,0-2.151,1.297-2.151,2.611
		c0,1.262,0.764,2.576,2.151,2.576c0.639,0,1.599-0.533,1.901-0.533c0.604,0,1.101,0.516,1.101,1.12
		c0,1.314-2.203,1.759-3.127,1.759c-2.753,0-4.585-2.257-4.585-4.922c0-2.594,1.884-4.957,4.585-4.957
		c1.012,0,3.127,0.373,3.127,1.616C25.551,14.725,25.178,15.418,24.573,15.418z"/>
</g>
<g id="Control_de_Existencias" class="st0">
	<path class="st9" d="M32,0v23.759C32,28.311,28.312,32,23.762,32H0V8.323l0,0V8.239C0,3.69,3.697,0.007,8.248,0.007
		C8.248,0.007,32,0.003,32,0z"/>
	<path class="st2" d="M12.211,9.379c1.297,0,3.819,0.425,3.819,1.99c0,0.639-0.444,1.191-1.101,1.191
		c-0.729,0-1.226-0.623-2.719-0.623c-2.203,0-3.34,1.866-3.34,4.035c0,2.113,1.155,3.925,3.34,3.925
		c1.493,0,2.097-0.747,2.825-0.747c0.8,0,1.174,0.8,1.174,1.208c0,1.707-2.684,2.097-3.998,2.097c-3.608,0-6.113-2.861-6.113-6.538
		C6.098,12.221,8.586,9.379,12.211,9.379z"/>
	<path class="st2" d="M19.448,18.368c0.177,1.262,1.226,1.849,2.415,1.849c1.316,0,2.222-1.031,2.898-1.031
		c0.55,0,1.047,0.55,1.047,1.101c0,1.102-2.274,2.168-4.175,2.168c-2.878,0-4.797-2.097-4.797-4.922
		c0-2.594,1.884-4.957,4.585-4.957c2.771,0,4.601,2.523,4.601,4.655c0,0.764-0.337,1.137-1.118,1.137H19.448z M23.464,16.663
		c-0.142-1.12-0.854-1.955-2.043-1.955c-1.137,0-1.903,0.87-2.026,1.955H23.464z"/>
</g>
<g id="Activo_Fijo" class="st0">
	<g class="st7">
		<path class="st10" d="M32,0v23.759C32,28.311,28.312,32,23.762,32H0V8.323l0,0V8.239C0,3.69,3.697,0.007,8.248,0.007
			C8.248,0.007,32,0.003,32,0z"/>
	</g>
	<g class="st7">
		<path class="st4" d="M11.056,10.853c0.302-0.818,0.995-1.476,1.901-1.476c0.941,0,1.599,0.622,1.901,1.476l3.483,9.665
			c0.106,0.285,0.142,0.533,0.142,0.658c0,0.693-0.569,1.172-1.226,1.172c-0.747,0-1.12-0.391-1.297-0.924l-0.533-1.67h-4.941
			l-0.533,1.653c-0.177,0.55-0.55,0.941-1.278,0.941c-0.712,0-1.316-0.533-1.316-1.243c0-0.285,0.089-0.498,0.125-0.587
			L11.056,10.853z M11.252,17.303h3.375l-1.653-5.153H12.94L11.252,17.303z"/>
		<path class="st4" d="M19.839,15.029h-0.568c-0.694,0-1.12-0.427-1.12-1.12c0-0.641,0.479-1.12,1.12-1.12h0.568v-1.314
			c0-1.884,1.12-2.915,2.682-2.915c0.906,0,1.778,0.267,1.778,1.156c0,0.745-0.339,1.083-1.049,1.083c-0.427,0-0.852,0-0.852,0.941
			v1.049h0.799c0.764,0,1.299,0.302,1.299,1.12c0,0.799-0.552,1.12-1.299,1.12h-0.799v5.898c0,0.854-0.533,1.422-1.28,1.422
			c-0.747,0-1.28-0.568-1.28-1.422V15.029z"/>
	</g>
</g>
<g id="N贸mina" class="st0">
	<path class="st5" d="M32,0v23.759C32,28.311,28.312,32,23.762,32H0V8.323l0,0V8.239C0,3.69,3.697,0.007,8.248,0.007
		C8.248,0.007,32,0.003,32,0z"/>
	<path class="st2" d="M2.883,10.834c0-0.9,0.576-1.403,1.349-1.403c0.341,0,0.9,0.269,1.133,0.593l5.703,7.61h0.036v-6.8
		c0-0.9,0.576-1.403,1.349-1.403s1.349,0.503,1.349,1.403v10.217c0,0.9-0.576,1.405-1.349,1.405c-0.342,0-0.882-0.271-1.134-0.595
		l-5.702-7.518H5.582v6.709c0,0.9-0.576,1.405-1.349,1.405s-1.349-0.505-1.349-1.405V10.834z"/>
	<path class="st2" d="M15.238,14.108c0-0.862,0.54-1.438,1.295-1.438c0.666,0,1.098,0.359,1.187,0.97
		c0.63-0.683,1.458-1.079,2.411-1.079c1.079,0,1.996,0.451,2.68,1.313c0.72-0.827,1.853-1.313,2.735-1.313
		c2.104,0,3.544,1.223,3.544,3.491v4.964c0,0.864-0.54,1.44-1.296,1.44c-0.755,0-1.295-0.576-1.295-1.44V16.5
		c0-1.044-0.576-1.782-1.511-1.782c-0.953,0-1.529,0.738-1.529,1.782v4.515c0,0.864-0.54,1.44-1.296,1.44
		c-0.755,0-1.295-0.576-1.295-1.44V16.5c0-1.044-0.576-1.782-1.511-1.782c-1.062,0-1.529,0.738-1.529,1.782v4.515
		c0,0.864-0.54,1.44-1.296,1.44c-0.755,0-1.295-0.576-1.295-1.44V14.108z"/>
</g>
<g id="Gesti贸n" class="st0">
	<path class="st11" d="M32,0v23.759C32,28.311,28.312,32,23.762,32H0V8.323l0,0V8.239C0,3.69,3.697,0.007,8.248,0.007
		C8.248,0.007,32,0.003,32,0z"/>
	<path class="st2" d="M15.167,14.744c1.12,0,1.564,0.568,1.564,1.705c0,3.431-2.24,6.007-5.793,6.007
		c-3.606,0-6.111-2.861-6.111-6.54c0-3.694,2.488-6.538,6.111-6.538c2.684,0,4.887,1.262,4.887,2.505
		c0,0.764-0.481,1.245-1.102,1.245c-1.208,0-1.457-1.299-3.785-1.299c-2.22,0-3.34,1.938-3.34,4.087c0,2.168,1.085,4.087,3.34,4.087
		c1.405,0,3.021-0.781,3.021-2.807h-1.812c-0.727,0-1.243-0.516-1.243-1.243c0-0.747,0.568-1.208,1.243-1.208H15.167z"/>
	<path class="st2" d="M19.831,18.369c0.177,1.26,1.226,1.847,2.415,1.847c1.316,0,2.222-1.031,2.898-1.031
		c0.55,0,1.047,0.552,1.047,1.102c0,1.102-2.274,2.168-4.175,2.168c-2.878,0-4.797-2.097-4.797-4.922
		c0-2.595,1.884-4.958,4.585-4.958c2.771,0,4.601,2.524,4.601,4.656c0,0.764-0.337,1.137-1.118,1.137H19.831z M23.846,16.662
		c-0.142-1.12-0.854-1.955-2.043-1.955c-1.137,0-1.903,0.872-2.026,1.955H23.846z"/>
</g>
</svg>
